<mxfile host="app.diagrams.net" modified="2023-07-06T04:33:15.864Z" agent="Mozilla/5.0 (Windows NT 10.0; Win64; x64) AppleWebKit/537.36 (KHTML, like Gecko) Chrome/114.0.0.0 Safari/537.36 Edg/114.0.1823.67" etag="c5kBzsh2yZzD3iHWr0NC" version="21.6.1" type="device">
  <diagram name="Página-1" id="6VJu3tqBVl3EcGfiemD4">
    <mxGraphModel dx="533" dy="207" grid="1" gridSize="10" guides="1" tooltips="1" connect="1" arrows="1" fold="1" page="1" pageScale="1" pageWidth="827" pageHeight="1169" math="0" shadow="0">
      <root>
        <mxCell id="0" />
        <mxCell id="1" parent="0" />
        <mxCell id="G4YV_WQ0-qSgS3mW1M7n-1" value="usuário" style="shape=umlActor;verticalLabelPosition=bottom;verticalAlign=top;html=1;outlineConnect=0;fontSize=13;" vertex="1" parent="1">
          <mxGeometry x="170" y="70" width="30" height="60" as="geometry" />
        </mxCell>
        <mxCell id="G4YV_WQ0-qSgS3mW1M7n-7" value="" style="endArrow=classic;html=1;rounded=0;" edge="1" parent="1">
          <mxGeometry width="50" height="50" relative="1" as="geometry">
            <mxPoint x="220" y="100" as="sourcePoint" />
            <mxPoint x="270" y="50" as="targetPoint" />
          </mxGeometry>
        </mxCell>
        <mxCell id="G4YV_WQ0-qSgS3mW1M7n-8" value="" style="endArrow=classic;html=1;rounded=0;entryX=0.025;entryY=0.263;entryDx=0;entryDy=0;entryPerimeter=0;" edge="1" parent="1" target="G4YV_WQ0-qSgS3mW1M7n-10">
          <mxGeometry width="50" height="50" relative="1" as="geometry">
            <mxPoint x="220" y="100" as="sourcePoint" />
            <mxPoint x="270" y="140" as="targetPoint" />
          </mxGeometry>
        </mxCell>
        <mxCell id="G4YV_WQ0-qSgS3mW1M7n-9" value="configura servidor local" style="ellipse;whiteSpace=wrap;html=1;" vertex="1" parent="1">
          <mxGeometry x="270" width="120" height="80" as="geometry" />
        </mxCell>
        <mxCell id="G4YV_WQ0-qSgS3mW1M7n-10" value="instala sistema" style="ellipse;whiteSpace=wrap;html=1;" vertex="1" parent="1">
          <mxGeometry x="270" y="130" width="120" height="80" as="geometry" />
        </mxCell>
        <mxCell id="G4YV_WQ0-qSgS3mW1M7n-11" value="depende" style="endArrow=none;dashed=1;html=1;rounded=0;entryX=0.5;entryY=1;entryDx=0;entryDy=0;exitX=0.5;exitY=0;exitDx=0;exitDy=0;" edge="1" parent="1" source="G4YV_WQ0-qSgS3mW1M7n-10" target="G4YV_WQ0-qSgS3mW1M7n-9">
          <mxGeometry width="50" height="50" relative="1" as="geometry">
            <mxPoint x="390" y="280" as="sourcePoint" />
            <mxPoint x="440" y="230" as="targetPoint" />
          </mxGeometry>
        </mxCell>
        <mxCell id="G4YV_WQ0-qSgS3mW1M7n-14" value="depende" style="endArrow=none;dashed=1;html=1;rounded=0;entryX=1;entryY=0.5;entryDx=0;entryDy=0;" edge="1" parent="1" target="G4YV_WQ0-qSgS3mW1M7n-9">
          <mxGeometry width="50" height="50" relative="1" as="geometry">
            <mxPoint x="450" y="100" as="sourcePoint" />
            <mxPoint x="340" y="90" as="targetPoint" />
          </mxGeometry>
        </mxCell>
        <mxCell id="G4YV_WQ0-qSgS3mW1M7n-15" value="depende" style="endArrow=none;dashed=1;html=1;rounded=0;exitX=1;exitY=0.5;exitDx=0;exitDy=0;" edge="1" parent="1" source="G4YV_WQ0-qSgS3mW1M7n-10">
          <mxGeometry width="50" height="50" relative="1" as="geometry">
            <mxPoint x="350" y="150" as="sourcePoint" />
            <mxPoint x="450" y="100" as="targetPoint" />
          </mxGeometry>
        </mxCell>
        <mxCell id="G4YV_WQ0-qSgS3mW1M7n-16" value="aguarda cheiro de gás" style="ellipse;whiteSpace=wrap;html=1;" vertex="1" parent="1">
          <mxGeometry x="453" y="61" width="120" height="80" as="geometry" />
        </mxCell>
        <mxCell id="G4YV_WQ0-qSgS3mW1M7n-18" value="se" style="endArrow=classic;html=1;rounded=0;exitX=1;exitY=0.5;exitDx=0;exitDy=0;" edge="1" parent="1" source="G4YV_WQ0-qSgS3mW1M7n-16">
          <mxGeometry width="50" height="50" relative="1" as="geometry">
            <mxPoint x="390" y="280" as="sourcePoint" />
            <mxPoint x="630" y="100" as="targetPoint" />
          </mxGeometry>
        </mxCell>
        <mxCell id="G4YV_WQ0-qSgS3mW1M7n-19" value="alerta usuario" style="ellipse;whiteSpace=wrap;html=1;" vertex="1" parent="1">
          <mxGeometry x="630" y="61" width="120" height="80" as="geometry" />
        </mxCell>
        <mxCell id="G4YV_WQ0-qSgS3mW1M7n-21" style="edgeStyle=orthogonalEdgeStyle;rounded=0;orthogonalLoop=1;jettySize=auto;html=1;" edge="1" parent="1" source="G4YV_WQ0-qSgS3mW1M7n-20" target="G4YV_WQ0-qSgS3mW1M7n-22">
          <mxGeometry relative="1" as="geometry">
            <mxPoint x="240" y="285" as="targetPoint" />
          </mxGeometry>
        </mxCell>
        <mxCell id="G4YV_WQ0-qSgS3mW1M7n-20" value="" style="ellipse;whiteSpace=wrap;html=1;aspect=fixed;" vertex="1" parent="1">
          <mxGeometry x="180" y="270" width="30" height="30" as="geometry" />
        </mxCell>
        <mxCell id="G4YV_WQ0-qSgS3mW1M7n-23" style="edgeStyle=orthogonalEdgeStyle;rounded=0;orthogonalLoop=1;jettySize=auto;html=1;" edge="1" parent="1" source="G4YV_WQ0-qSgS3mW1M7n-22" target="G4YV_WQ0-qSgS3mW1M7n-24">
          <mxGeometry relative="1" as="geometry">
            <mxPoint x="380" y="284.5" as="targetPoint" />
          </mxGeometry>
        </mxCell>
        <mxCell id="G4YV_WQ0-qSgS3mW1M7n-22" value="possui gás?" style="rounded=0;whiteSpace=wrap;html=1;" vertex="1" parent="1">
          <mxGeometry x="240" y="267" width="80" height="35" as="geometry" />
        </mxCell>
        <mxCell id="G4YV_WQ0-qSgS3mW1M7n-25" value="não" style="edgeStyle=orthogonalEdgeStyle;rounded=0;orthogonalLoop=1;jettySize=auto;html=1;" edge="1" parent="1" source="G4YV_WQ0-qSgS3mW1M7n-24">
          <mxGeometry relative="1" as="geometry">
            <mxPoint x="210" y="380" as="targetPoint" />
          </mxGeometry>
        </mxCell>
        <mxCell id="G4YV_WQ0-qSgS3mW1M7n-28" value="sim" style="edgeStyle=orthogonalEdgeStyle;rounded=0;orthogonalLoop=1;jettySize=auto;html=1;" edge="1" parent="1" source="G4YV_WQ0-qSgS3mW1M7n-24">
          <mxGeometry relative="1" as="geometry">
            <mxPoint x="360" y="380" as="targetPoint" />
          </mxGeometry>
        </mxCell>
        <mxCell id="G4YV_WQ0-qSgS3mW1M7n-24" value="" style="rhombus;whiteSpace=wrap;html=1;" vertex="1" parent="1">
          <mxGeometry x="265" y="320" width="30" height="30" as="geometry" />
        </mxCell>
        <mxCell id="G4YV_WQ0-qSgS3mW1M7n-27" value="reinicia" style="ellipse;whiteSpace=wrap;html=1;aspect=fixed;" vertex="1" parent="1">
          <mxGeometry x="190" y="379" width="41" height="41" as="geometry" />
        </mxCell>
        <mxCell id="G4YV_WQ0-qSgS3mW1M7n-32" style="edgeStyle=orthogonalEdgeStyle;rounded=0;orthogonalLoop=1;jettySize=auto;html=1;" edge="1" parent="1" source="G4YV_WQ0-qSgS3mW1M7n-30">
          <mxGeometry relative="1" as="geometry">
            <mxPoint x="480" y="394.5" as="targetPoint" />
          </mxGeometry>
        </mxCell>
        <mxCell id="G4YV_WQ0-qSgS3mW1M7n-30" value="envia requisição ao servidor" style="rounded=0;whiteSpace=wrap;html=1;" vertex="1" parent="1">
          <mxGeometry x="315" y="379" width="90" height="31" as="geometry" />
        </mxCell>
        <mxCell id="G4YV_WQ0-qSgS3mW1M7n-35" style="edgeStyle=orthogonalEdgeStyle;rounded=0;orthogonalLoop=1;jettySize=auto;html=1;" edge="1" parent="1" source="G4YV_WQ0-qSgS3mW1M7n-34" target="G4YV_WQ0-qSgS3mW1M7n-36">
          <mxGeometry relative="1" as="geometry">
            <mxPoint x="522" y="450" as="targetPoint" />
          </mxGeometry>
        </mxCell>
        <mxCell id="G4YV_WQ0-qSgS3mW1M7n-34" value="confirma recebimento de requisição" style="rounded=0;whiteSpace=wrap;html=1;" vertex="1" parent="1">
          <mxGeometry x="482" y="378" width="80" height="42" as="geometry" />
        </mxCell>
        <mxCell id="G4YV_WQ0-qSgS3mW1M7n-37" style="edgeStyle=orthogonalEdgeStyle;rounded=0;orthogonalLoop=1;jettySize=auto;html=1;" edge="1" parent="1" source="G4YV_WQ0-qSgS3mW1M7n-36" target="G4YV_WQ0-qSgS3mW1M7n-38">
          <mxGeometry relative="1" as="geometry">
            <mxPoint x="400" y="470" as="targetPoint" />
          </mxGeometry>
        </mxCell>
        <mxCell id="G4YV_WQ0-qSgS3mW1M7n-36" value="utiliza gateway para sms" style="rounded=0;whiteSpace=wrap;html=1;" vertex="1" parent="1">
          <mxGeometry x="481" y="450" width="82" height="40" as="geometry" />
        </mxCell>
        <mxCell id="G4YV_WQ0-qSgS3mW1M7n-39" style="edgeStyle=orthogonalEdgeStyle;rounded=0;orthogonalLoop=1;jettySize=auto;html=1;entryX=0.5;entryY=1;entryDx=0;entryDy=0;" edge="1" parent="1" source="G4YV_WQ0-qSgS3mW1M7n-38" target="G4YV_WQ0-qSgS3mW1M7n-27">
          <mxGeometry relative="1" as="geometry" />
        </mxCell>
        <mxCell id="G4YV_WQ0-qSgS3mW1M7n-38" value="envia sms" style="rounded=0;whiteSpace=wrap;html=1;" vertex="1" parent="1">
          <mxGeometry x="340" y="450" width="60" height="40" as="geometry" />
        </mxCell>
        <mxCell id="G4YV_WQ0-qSgS3mW1M7n-41" value="" style="rounded=0;whiteSpace=wrap;html=1;" vertex="1" parent="1">
          <mxGeometry x="210" y="580" width="10" height="270" as="geometry" />
        </mxCell>
        <mxCell id="G4YV_WQ0-qSgS3mW1M7n-43" value="Detector" style="text;html=1;strokeColor=none;fillColor=none;align=center;verticalAlign=middle;whiteSpace=wrap;rounded=0;" vertex="1" parent="1">
          <mxGeometry x="185" y="550" width="60" height="30" as="geometry" />
        </mxCell>
        <mxCell id="G4YV_WQ0-qSgS3mW1M7n-45" value="" style="rounded=0;whiteSpace=wrap;html=1;" vertex="1" parent="1">
          <mxGeometry x="314" y="580" width="11" height="270" as="geometry" />
        </mxCell>
        <mxCell id="G4YV_WQ0-qSgS3mW1M7n-46" value="Programa Servidor" style="text;html=1;strokeColor=none;fillColor=none;align=center;verticalAlign=middle;whiteSpace=wrap;rounded=0;" vertex="1" parent="1">
          <mxGeometry x="289" y="550" width="61" height="30" as="geometry" />
        </mxCell>
        <mxCell id="G4YV_WQ0-qSgS3mW1M7n-47" value="" style="rounded=0;whiteSpace=wrap;html=1;" vertex="1" parent="1">
          <mxGeometry x="418" y="580" width="10" height="270" as="geometry" />
        </mxCell>
        <mxCell id="G4YV_WQ0-qSgS3mW1M7n-48" value="Gateway SMS" style="text;html=1;strokeColor=none;fillColor=none;align=center;verticalAlign=middle;whiteSpace=wrap;rounded=0;" vertex="1" parent="1">
          <mxGeometry x="393" y="550" width="60" height="30" as="geometry" />
        </mxCell>
        <mxCell id="G4YV_WQ0-qSgS3mW1M7n-49" value="" style="rounded=0;whiteSpace=wrap;html=1;" vertex="1" parent="1">
          <mxGeometry x="523" y="580" width="10" height="270" as="geometry" />
        </mxCell>
        <mxCell id="G4YV_WQ0-qSgS3mW1M7n-50" value="Aparelho telefonico" style="text;html=1;strokeColor=none;fillColor=none;align=center;verticalAlign=middle;whiteSpace=wrap;rounded=0;" vertex="1" parent="1">
          <mxGeometry x="498" y="550" width="60" height="30" as="geometry" />
        </mxCell>
        <mxCell id="G4YV_WQ0-qSgS3mW1M7n-52" value="" style="endArrow=classic;html=1;rounded=0;exitX=1;exitY=0.25;exitDx=0;exitDy=0;entryX=0;entryY=0.25;entryDx=0;entryDy=0;" edge="1" parent="1" source="G4YV_WQ0-qSgS3mW1M7n-41" target="G4YV_WQ0-qSgS3mW1M7n-45">
          <mxGeometry width="50" height="50" relative="1" as="geometry">
            <mxPoint x="420" y="760" as="sourcePoint" />
            <mxPoint x="470" y="710" as="targetPoint" />
          </mxGeometry>
        </mxCell>
        <mxCell id="G4YV_WQ0-qSgS3mW1M7n-53" value="" style="endArrow=classic;html=1;rounded=0;exitX=0;exitY=0.5;exitDx=0;exitDy=0;entryX=1;entryY=0.5;entryDx=0;entryDy=0;" edge="1" parent="1" source="G4YV_WQ0-qSgS3mW1M7n-45" target="G4YV_WQ0-qSgS3mW1M7n-41">
          <mxGeometry width="50" height="50" relative="1" as="geometry">
            <mxPoint x="230" y="658" as="sourcePoint" />
            <mxPoint x="324" y="658" as="targetPoint" />
          </mxGeometry>
        </mxCell>
        <mxCell id="G4YV_WQ0-qSgS3mW1M7n-54" value="" style="endArrow=classic;html=1;rounded=0;exitX=1;exitY=0.25;exitDx=0;exitDy=0;entryX=0;entryY=0.25;entryDx=0;entryDy=0;" edge="1" parent="1">
          <mxGeometry width="50" height="50" relative="1" as="geometry">
            <mxPoint x="325" y="680" as="sourcePoint" />
            <mxPoint x="419" y="680" as="targetPoint" />
          </mxGeometry>
        </mxCell>
        <mxCell id="G4YV_WQ0-qSgS3mW1M7n-55" value="" style="endArrow=classic;html=1;rounded=0;exitX=0;exitY=0.5;exitDx=0;exitDy=0;entryX=1;entryY=0.5;entryDx=0;entryDy=0;" edge="1" parent="1">
          <mxGeometry width="50" height="50" relative="1" as="geometry">
            <mxPoint x="419" y="760" as="sourcePoint" />
            <mxPoint x="325" y="760" as="targetPoint" />
          </mxGeometry>
        </mxCell>
        <mxCell id="G4YV_WQ0-qSgS3mW1M7n-56" value="" style="endArrow=classic;html=1;rounded=0;exitX=1;exitY=0.25;exitDx=0;exitDy=0;entryX=0;entryY=0.25;entryDx=0;entryDy=0;" edge="1" parent="1">
          <mxGeometry width="50" height="50" relative="1" as="geometry">
            <mxPoint x="428" y="720" as="sourcePoint" />
            <mxPoint x="522" y="720" as="targetPoint" />
          </mxGeometry>
        </mxCell>
        <mxCell id="G4YV_WQ0-qSgS3mW1M7n-57" value="&lt;font style=&quot;font-size: 10px;&quot;&gt;POST detecção&lt;/font&gt;" style="text;html=1;strokeColor=none;fillColor=none;align=center;verticalAlign=middle;whiteSpace=wrap;rounded=0;" vertex="1" parent="1">
          <mxGeometry x="222" y="626" width="84" height="30" as="geometry" />
        </mxCell>
        <mxCell id="G4YV_WQ0-qSgS3mW1M7n-58" value="&lt;span style=&quot;font-size: 10px;&quot;&gt;POST envio&lt;/span&gt;" style="text;html=1;strokeColor=none;fillColor=none;align=center;verticalAlign=middle;whiteSpace=wrap;rounded=0;" vertex="1" parent="1">
          <mxGeometry x="330" y="658" width="84" height="30" as="geometry" />
        </mxCell>
        <mxCell id="G4YV_WQ0-qSgS3mW1M7n-59" value="&lt;font style=&quot;font-size: 10px;&quot;&gt;SMS envio&lt;/font&gt;" style="text;html=1;strokeColor=none;fillColor=none;align=center;verticalAlign=middle;whiteSpace=wrap;rounded=0;" vertex="1" parent="1">
          <mxGeometry x="430" y="698" width="84" height="30" as="geometry" />
        </mxCell>
        <mxCell id="G4YV_WQ0-qSgS3mW1M7n-60" value="&lt;font style=&quot;font-size: 10px;&quot;&gt;200 - confimação&lt;/font&gt;" style="text;html=1;strokeColor=none;fillColor=none;align=center;verticalAlign=middle;whiteSpace=wrap;rounded=0;" vertex="1" parent="1">
          <mxGeometry x="230" y="693" width="84" height="30" as="geometry" />
        </mxCell>
        <mxCell id="G4YV_WQ0-qSgS3mW1M7n-62" value="&lt;font style=&quot;font-size: 10px;&quot;&gt;200 - confimação&lt;/font&gt;" style="text;html=1;strokeColor=none;fillColor=none;align=center;verticalAlign=middle;whiteSpace=wrap;rounded=0;" vertex="1" parent="1">
          <mxGeometry x="335" y="738" width="84" height="30" as="geometry" />
        </mxCell>
        <mxCell id="G4YV_WQ0-qSgS3mW1M7n-64" value="SMSClient" style="swimlane;fontStyle=0;childLayout=stackLayout;horizontal=1;startSize=30;horizontalStack=0;resizeParent=1;resizeParentMax=0;resizeLast=0;collapsible=1;marginBottom=0;whiteSpace=wrap;html=1;" vertex="1" parent="1">
          <mxGeometry x="210" y="960" width="140" height="150" as="geometry" />
        </mxCell>
        <mxCell id="G4YV_WQ0-qSgS3mW1M7n-65" value="- URL: string" style="text;strokeColor=none;fillColor=none;align=left;verticalAlign=middle;spacingLeft=4;spacingRight=4;overflow=hidden;points=[[0,0.5],[1,0.5]];portConstraint=eastwest;rotatable=0;whiteSpace=wrap;html=1;" vertex="1" parent="G4YV_WQ0-qSgS3mW1M7n-64">
          <mxGeometry y="30" width="140" height="30" as="geometry" />
        </mxCell>
        <mxCell id="G4YV_WQ0-qSgS3mW1M7n-66" value="- message: string" style="text;strokeColor=none;fillColor=none;align=left;verticalAlign=middle;spacingLeft=4;spacingRight=4;overflow=hidden;points=[[0,0.5],[1,0.5]];portConstraint=eastwest;rotatable=0;whiteSpace=wrap;html=1;" vertex="1" parent="G4YV_WQ0-qSgS3mW1M7n-64">
          <mxGeometry y="60" width="140" height="30" as="geometry" />
        </mxCell>
        <mxCell id="G4YV_WQ0-qSgS3mW1M7n-67" value="- response: string" style="text;strokeColor=none;fillColor=none;align=left;verticalAlign=middle;spacingLeft=4;spacingRight=4;overflow=hidden;points=[[0,0.5],[1,0.5]];portConstraint=eastwest;rotatable=0;whiteSpace=wrap;html=1;" vertex="1" parent="G4YV_WQ0-qSgS3mW1M7n-64">
          <mxGeometry y="90" width="140" height="30" as="geometry" />
        </mxCell>
        <mxCell id="G4YV_WQ0-qSgS3mW1M7n-68" value="+ sendSMS(): void" style="rounded=0;whiteSpace=wrap;html=1;align=left;" vertex="1" parent="G4YV_WQ0-qSgS3mW1M7n-64">
          <mxGeometry y="120" width="140" height="30" as="geometry" />
        </mxCell>
        <mxCell id="G4YV_WQ0-qSgS3mW1M7n-69" value="Socket" style="swimlane;fontStyle=0;childLayout=stackLayout;horizontal=1;startSize=30;horizontalStack=0;resizeParent=1;resizeParentMax=0;resizeLast=0;collapsible=1;marginBottom=0;whiteSpace=wrap;html=1;" vertex="1" parent="1">
          <mxGeometry x="400" y="960" width="220" height="390" as="geometry" />
        </mxCell>
        <mxCell id="G4YV_WQ0-qSgS3mW1M7n-70" value="- serverSocket: SOCKET" style="text;strokeColor=none;fillColor=none;align=left;verticalAlign=middle;spacingLeft=4;spacingRight=4;overflow=hidden;points=[[0,0.5],[1,0.5]];portConstraint=eastwest;rotatable=0;whiteSpace=wrap;html=1;" vertex="1" parent="G4YV_WQ0-qSgS3mW1M7n-69">
          <mxGeometry y="30" width="220" height="30" as="geometry" />
        </mxCell>
        <mxCell id="G4YV_WQ0-qSgS3mW1M7n-71" value="- clientSocket: SOCKET" style="text;strokeColor=none;fillColor=none;align=left;verticalAlign=middle;spacingLeft=4;spacingRight=4;overflow=hidden;points=[[0,0.5],[1,0.5]];portConstraint=eastwest;rotatable=0;whiteSpace=wrap;html=1;" vertex="1" parent="G4YV_WQ0-qSgS3mW1M7n-69">
          <mxGeometry y="60" width="220" height="30" as="geometry" />
        </mxCell>
        <mxCell id="G4YV_WQ0-qSgS3mW1M7n-72" value="- serverAddress: sockaddr_in" style="text;strokeColor=none;fillColor=none;align=left;verticalAlign=middle;spacingLeft=4;spacingRight=4;overflow=hidden;points=[[0,0.5],[1,0.5]];portConstraint=eastwest;rotatable=0;whiteSpace=wrap;html=1;" vertex="1" parent="G4YV_WQ0-qSgS3mW1M7n-69">
          <mxGeometry y="90" width="220" height="30" as="geometry" />
        </mxCell>
        <mxCell id="G4YV_WQ0-qSgS3mW1M7n-80" value="- clientAddress: sockaddr_in" style="text;strokeColor=none;fillColor=none;align=left;verticalAlign=middle;spacingLeft=4;spacingRight=4;overflow=hidden;points=[[0,0.5],[1,0.5]];portConstraint=eastwest;rotatable=0;whiteSpace=wrap;html=1;" vertex="1" parent="G4YV_WQ0-qSgS3mW1M7n-69">
          <mxGeometry y="120" width="220" height="30" as="geometry" />
        </mxCell>
        <mxCell id="G4YV_WQ0-qSgS3mW1M7n-81" value="-&amp;nbsp;clientAddressLength: int" style="text;strokeColor=none;fillColor=none;align=left;verticalAlign=middle;spacingLeft=4;spacingRight=4;overflow=hidden;points=[[0,0.5],[1,0.5]];portConstraint=eastwest;rotatable=0;whiteSpace=wrap;html=1;" vertex="1" parent="G4YV_WQ0-qSgS3mW1M7n-69">
          <mxGeometry y="150" width="220" height="30" as="geometry" />
        </mxCell>
        <mxCell id="G4YV_WQ0-qSgS3mW1M7n-92" value="" style="endArrow=none;html=1;rounded=0;entryX=0.986;entryY=0.067;entryDx=0;entryDy=0;entryPerimeter=0;" edge="1" parent="G4YV_WQ0-qSgS3mW1M7n-69" target="G4YV_WQ0-qSgS3mW1M7n-91">
          <mxGeometry width="50" height="50" relative="1" as="geometry">
            <mxPoint y="240" as="sourcePoint" />
            <mxPoint x="50" y="190" as="targetPoint" />
          </mxGeometry>
        </mxCell>
        <mxCell id="G4YV_WQ0-qSgS3mW1M7n-82" value="-&amp;nbsp;buffer: char[1024]" style="text;strokeColor=none;fillColor=none;align=left;verticalAlign=middle;spacingLeft=4;spacingRight=4;overflow=hidden;points=[[0,0.5],[1,0.5]];portConstraint=eastwest;rotatable=0;whiteSpace=wrap;html=1;" vertex="1" parent="G4YV_WQ0-qSgS3mW1M7n-69">
          <mxGeometry y="180" width="220" height="30" as="geometry" />
        </mxCell>
        <mxCell id="G4YV_WQ0-qSgS3mW1M7n-83" value="-&amp;nbsp;response: char*" style="text;strokeColor=none;fillColor=none;align=left;verticalAlign=middle;spacingLeft=4;spacingRight=4;overflow=hidden;points=[[0,0.5],[1,0.5]];portConstraint=eastwest;rotatable=0;whiteSpace=wrap;html=1;" vertex="1" parent="G4YV_WQ0-qSgS3mW1M7n-69">
          <mxGeometry y="210" width="220" height="30" as="geometry" />
        </mxCell>
        <mxCell id="G4YV_WQ0-qSgS3mW1M7n-91" value="+startServer(): void" style="text;strokeColor=none;fillColor=none;align=left;verticalAlign=middle;spacingLeft=4;spacingRight=4;overflow=hidden;points=[[0,0.5],[1,0.5]];portConstraint=eastwest;rotatable=0;whiteSpace=wrap;html=1;" vertex="1" parent="G4YV_WQ0-qSgS3mW1M7n-69">
          <mxGeometry y="240" width="220" height="30" as="geometry" />
        </mxCell>
        <mxCell id="G4YV_WQ0-qSgS3mW1M7n-90" value="+acceptConnection(): void" style="text;strokeColor=none;fillColor=none;align=left;verticalAlign=middle;spacingLeft=4;spacingRight=4;overflow=hidden;points=[[0,0.5],[1,0.5]];portConstraint=eastwest;rotatable=0;whiteSpace=wrap;html=1;" vertex="1" parent="G4YV_WQ0-qSgS3mW1M7n-69">
          <mxGeometry y="270" width="220" height="30" as="geometry" />
        </mxCell>
        <mxCell id="G4YV_WQ0-qSgS3mW1M7n-89" value="+receiveRequest(): void" style="text;strokeColor=none;fillColor=none;align=left;verticalAlign=middle;spacingLeft=4;spacingRight=4;overflow=hidden;points=[[0,0.5],[1,0.5]];portConstraint=eastwest;rotatable=0;whiteSpace=wrap;html=1;" vertex="1" parent="G4YV_WQ0-qSgS3mW1M7n-69">
          <mxGeometry y="300" width="220" height="30" as="geometry" />
        </mxCell>
        <mxCell id="G4YV_WQ0-qSgS3mW1M7n-88" value="+sendResponse(): void" style="text;strokeColor=none;fillColor=none;align=left;verticalAlign=middle;spacingLeft=4;spacingRight=4;overflow=hidden;points=[[0,0.5],[1,0.5]];portConstraint=eastwest;rotatable=0;whiteSpace=wrap;html=1;" vertex="1" parent="G4YV_WQ0-qSgS3mW1M7n-69">
          <mxGeometry y="330" width="220" height="30" as="geometry" />
        </mxCell>
        <mxCell id="G4YV_WQ0-qSgS3mW1M7n-87" value="+closeSocket(): void" style="text;strokeColor=none;fillColor=none;align=left;verticalAlign=middle;spacingLeft=4;spacingRight=4;overflow=hidden;points=[[0,0.5],[1,0.5]];portConstraint=eastwest;rotatable=0;whiteSpace=wrap;html=1;" vertex="1" parent="G4YV_WQ0-qSgS3mW1M7n-69">
          <mxGeometry y="360" width="220" height="30" as="geometry" />
        </mxCell>
        <mxCell id="G4YV_WQ0-qSgS3mW1M7n-93" value="WiFi" style="swimlane;fontStyle=0;childLayout=stackLayout;horizontal=1;startSize=30;horizontalStack=0;resizeParent=1;resizeParentMax=0;resizeLast=0;collapsible=1;marginBottom=0;whiteSpace=wrap;html=1;" vertex="1" parent="1">
          <mxGeometry x="403" y="1470" width="170" height="120" as="geometry" />
        </mxCell>
        <mxCell id="G4YV_WQ0-qSgS3mW1M7n-97" value="" style="endArrow=none;html=1;rounded=0;entryX=1;entryY=1;entryDx=0;entryDy=0;entryPerimeter=0;" edge="1" parent="G4YV_WQ0-qSgS3mW1M7n-93" target="G4YV_WQ0-qSgS3mW1M7n-94">
          <mxGeometry width="50" height="50" relative="1" as="geometry">
            <mxPoint x="2" y="60" as="sourcePoint" />
            <mxPoint x="52" y="10" as="targetPoint" />
          </mxGeometry>
        </mxCell>
        <mxCell id="G4YV_WQ0-qSgS3mW1M7n-94" value="-status: int" style="text;strokeColor=none;fillColor=none;align=left;verticalAlign=middle;spacingLeft=4;spacingRight=4;overflow=hidden;points=[[0,0.5],[1,0.5]];portConstraint=eastwest;rotatable=0;whiteSpace=wrap;html=1;" vertex="1" parent="G4YV_WQ0-qSgS3mW1M7n-93">
          <mxGeometry y="30" width="170" height="30" as="geometry" />
        </mxCell>
        <mxCell id="G4YV_WQ0-qSgS3mW1M7n-95" value="+begin(ssid, password): void" style="text;strokeColor=none;fillColor=none;align=left;verticalAlign=middle;spacingLeft=4;spacingRight=4;overflow=hidden;points=[[0,0.5],[1,0.5]];portConstraint=eastwest;rotatable=0;whiteSpace=wrap;html=1;" vertex="1" parent="G4YV_WQ0-qSgS3mW1M7n-93">
          <mxGeometry y="60" width="170" height="30" as="geometry" />
        </mxCell>
        <mxCell id="G4YV_WQ0-qSgS3mW1M7n-96" value="+status(): int" style="text;strokeColor=none;fillColor=none;align=left;verticalAlign=middle;spacingLeft=4;spacingRight=4;overflow=hidden;points=[[0,0.5],[1,0.5]];portConstraint=eastwest;rotatable=0;whiteSpace=wrap;html=1;" vertex="1" parent="G4YV_WQ0-qSgS3mW1M7n-93">
          <mxGeometry y="90" width="170" height="30" as="geometry" />
        </mxCell>
        <mxCell id="G4YV_WQ0-qSgS3mW1M7n-98" value="GasDetector" style="swimlane;fontStyle=0;childLayout=stackLayout;horizontal=1;startSize=30;horizontalStack=0;resizeParent=1;resizeParentMax=0;resizeLast=0;collapsible=1;marginBottom=0;whiteSpace=wrap;html=1;" vertex="1" parent="1">
          <mxGeometry x="210" y="1430" width="140" height="270" as="geometry" />
        </mxCell>
        <mxCell id="G4YV_WQ0-qSgS3mW1M7n-99" value="-ssid: string " style="text;strokeColor=none;fillColor=none;align=left;verticalAlign=middle;spacingLeft=4;spacingRight=4;overflow=hidden;points=[[0,0.5],[1,0.5]];portConstraint=eastwest;rotatable=0;whiteSpace=wrap;html=1;" vertex="1" parent="G4YV_WQ0-qSgS3mW1M7n-98">
          <mxGeometry y="30" width="140" height="30" as="geometry" />
        </mxCell>
        <mxCell id="G4YV_WQ0-qSgS3mW1M7n-100" value="-password: string  " style="text;strokeColor=none;fillColor=none;align=left;verticalAlign=middle;spacingLeft=4;spacingRight=4;overflow=hidden;points=[[0,0.5],[1,0.5]];portConstraint=eastwest;rotatable=0;whiteSpace=wrap;html=1;" vertex="1" parent="G4YV_WQ0-qSgS3mW1M7n-98">
          <mxGeometry y="60" width="140" height="30" as="geometry" />
        </mxCell>
        <mxCell id="G4YV_WQ0-qSgS3mW1M7n-101" value="-serverName: string" style="text;strokeColor=none;fillColor=none;align=left;verticalAlign=middle;spacingLeft=4;spacingRight=4;overflow=hidden;points=[[0,0.5],[1,0.5]];portConstraint=eastwest;rotatable=0;whiteSpace=wrap;html=1;" vertex="1" parent="G4YV_WQ0-qSgS3mW1M7n-98">
          <mxGeometry y="90" width="140" height="30" as="geometry" />
        </mxCell>
        <mxCell id="G4YV_WQ0-qSgS3mW1M7n-102" value="-gasPin: int" style="text;strokeColor=none;fillColor=none;align=left;verticalAlign=middle;spacingLeft=4;spacingRight=4;overflow=hidden;points=[[0,0.5],[1,0.5]];portConstraint=eastwest;rotatable=0;whiteSpace=wrap;html=1;" vertex="1" parent="G4YV_WQ0-qSgS3mW1M7n-98">
          <mxGeometry y="120" width="140" height="30" as="geometry" />
        </mxCell>
        <mxCell id="G4YV_WQ0-qSgS3mW1M7n-108" value="" style="endArrow=none;html=1;rounded=0;exitX=-0.002;exitY=-0.004;exitDx=0;exitDy=0;exitPerimeter=0;entryX=0.998;entryY=1.004;entryDx=0;entryDy=0;entryPerimeter=0;" edge="1" parent="G4YV_WQ0-qSgS3mW1M7n-98" source="G4YV_WQ0-qSgS3mW1M7n-104" target="G4YV_WQ0-qSgS3mW1M7n-103">
          <mxGeometry width="50" height="50" relative="1" as="geometry">
            <mxPoint y="185" as="sourcePoint" />
            <mxPoint x="140" y="185" as="targetPoint" />
          </mxGeometry>
        </mxCell>
        <mxCell id="G4YV_WQ0-qSgS3mW1M7n-103" value="-buzzerPin: int" style="text;strokeColor=none;fillColor=none;align=left;verticalAlign=middle;spacingLeft=4;spacingRight=4;overflow=hidden;points=[[0,0.5],[1,0.5]];portConstraint=eastwest;rotatable=0;whiteSpace=wrap;html=1;" vertex="1" parent="G4YV_WQ0-qSgS3mW1M7n-98">
          <mxGeometry y="150" width="140" height="30" as="geometry" />
        </mxCell>
        <mxCell id="G4YV_WQ0-qSgS3mW1M7n-104" value="+setup(): void " style="text;strokeColor=none;fillColor=none;align=left;verticalAlign=middle;spacingLeft=4;spacingRight=4;overflow=hidden;points=[[0,0.5],[1,0.5]];portConstraint=eastwest;rotatable=0;whiteSpace=wrap;html=1;" vertex="1" parent="G4YV_WQ0-qSgS3mW1M7n-98">
          <mxGeometry y="180" width="140" height="30" as="geometry" />
        </mxCell>
        <mxCell id="G4YV_WQ0-qSgS3mW1M7n-105" value="+loop(): void " style="text;strokeColor=none;fillColor=none;align=left;verticalAlign=middle;spacingLeft=4;spacingRight=4;overflow=hidden;points=[[0,0.5],[1,0.5]];portConstraint=eastwest;rotatable=0;whiteSpace=wrap;html=1;" vertex="1" parent="G4YV_WQ0-qSgS3mW1M7n-98">
          <mxGeometry y="210" width="140" height="30" as="geometry" />
        </mxCell>
        <mxCell id="G4YV_WQ0-qSgS3mW1M7n-106" value="+sendAlert(): void" style="text;strokeColor=none;fillColor=none;align=left;verticalAlign=middle;spacingLeft=4;spacingRight=4;overflow=hidden;points=[[0,0.5],[1,0.5]];portConstraint=eastwest;rotatable=0;whiteSpace=wrap;html=1;" vertex="1" parent="G4YV_WQ0-qSgS3mW1M7n-98">
          <mxGeometry y="240" width="140" height="30" as="geometry" />
        </mxCell>
        <mxCell id="G4YV_WQ0-qSgS3mW1M7n-109" value="HTTPClient" style="swimlane;fontStyle=0;childLayout=stackLayout;horizontal=1;startSize=30;horizontalStack=0;resizeParent=1;resizeParentMax=0;resizeLast=0;collapsible=1;marginBottom=0;whiteSpace=wrap;html=1;" vertex="1" parent="1">
          <mxGeometry x="650" y="1475" width="220" height="150" as="geometry" />
        </mxCell>
        <mxCell id="G4YV_WQ0-qSgS3mW1M7n-110" value="+begin(serverName): void" style="text;strokeColor=none;fillColor=none;align=left;verticalAlign=middle;spacingLeft=4;spacingRight=4;overflow=hidden;points=[[0,0.5],[1,0.5]];portConstraint=eastwest;rotatable=0;whiteSpace=wrap;html=1;" vertex="1" parent="G4YV_WQ0-qSgS3mW1M7n-109">
          <mxGeometry y="30" width="220" height="30" as="geometry" />
        </mxCell>
        <mxCell id="G4YV_WQ0-qSgS3mW1M7n-111" value="+addHeader(header, value): void" style="text;strokeColor=none;fillColor=none;align=left;verticalAlign=middle;spacingLeft=4;spacingRight=4;overflow=hidden;points=[[0,0.5],[1,0.5]];portConstraint=eastwest;rotatable=0;whiteSpace=wrap;html=1;" vertex="1" parent="G4YV_WQ0-qSgS3mW1M7n-109">
          <mxGeometry y="60" width="220" height="30" as="geometry" />
        </mxCell>
        <mxCell id="G4YV_WQ0-qSgS3mW1M7n-112" value="+POST(payload): int" style="text;strokeColor=none;fillColor=none;align=left;verticalAlign=middle;spacingLeft=4;spacingRight=4;overflow=hidden;points=[[0,0.5],[1,0.5]];portConstraint=eastwest;rotatable=0;whiteSpace=wrap;html=1;" vertex="1" parent="G4YV_WQ0-qSgS3mW1M7n-109">
          <mxGeometry y="90" width="220" height="30" as="geometry" />
        </mxCell>
        <mxCell id="G4YV_WQ0-qSgS3mW1M7n-113" value="+end(): void" style="text;strokeColor=none;fillColor=none;align=left;verticalAlign=middle;spacingLeft=4;spacingRight=4;overflow=hidden;points=[[0,0.5],[1,0.5]];portConstraint=eastwest;rotatable=0;whiteSpace=wrap;html=1;" vertex="1" parent="G4YV_WQ0-qSgS3mW1M7n-109">
          <mxGeometry y="120" width="220" height="30" as="geometry" />
        </mxCell>
      </root>
    </mxGraphModel>
  </diagram>
</mxfile>
